#!OML:ASF F:\VICON\USERDATA\INSTALL\rory3\rory3.ASF
:FULLY-SPECIFIED
:DEGREES
195
root -7.64004 18.1114 8.41341 182.241 -48.7528 173.18
lowerback 7.89369 -5.76081 -5.16667
upperback 0.0354559 -8.09066 3.51998
thorax -3.1374 -3.96855 7.34272
lowerneck 5.83408 -14.8047 -15.8096
upperneck 31.5265 -34.8929 12.8293
head 15.4873 -17.9003 2.19036
rclavicle 2.64384e-014 2.54444e-014
rhumerus -41.6135 -16.883 -73.8194
rradius 29.6142
rwrist 7.91975
rhand -14.6979 6.35142
rfingers 7.12502
rthumb 11.4561 -23.3156
lclavicle 2.64384e-014 2.54444e-014
lhumerus -21.6361 -5.52241 89.6577
lradius 34.8761
lwrist -3.15484
lhand -18.7022 28.1423
lfingers 7.12502
lthumb 7.5926 57.986
rfemur -17.4758 -5.33888 24.0245
rtibia 35.1618
rfoot -3.9193 -4.7766
rtoes 9.03902
lfemur 16.2046 -0.913443 -21.8219
ltibia 21.601
lfoot 21.8395 -11.4533
ltoes 0.305893
196
root -7.55579 18.088 8.51435 182.512 -49.2865 172.923
lowerback 8.09054 -5.79797 -5.31588
upperback -0.133318 -8.15837 3.46885
thorax -3.40013 -3.98043 7.4158
lowerneck 6.02404 -14.7509 -15.9048
upperneck 31.6289 -34.9493 12.8761
head 15.5498 -17.9534 2.22048
rclavicle 1.68967e-015 4.77083e-014
rhumerus -42.0164 -17.0273 -73.6733
rradius 29.7349
rwrist 7.89676
rhand -14.9753 6.68295
rfingers 7.12502
rthumb 11.1886 -22.9987
lclavicle 1.68967e-015 4.77083e-014
lhumerus -21.6007 -5.9694 89.8074
lradius 35.2929
lwrist -3.12846
lhand -18.5987 26.3371
lfingers 7.12502
lthumb 7.69245 56.1772
rfemur -18.0312 -5.30612 23.8092
rtibia 35.19
rfoot -3.88644 -5.15793
rtoes 9.32588
lfemur 16.5455 -1.49468 -22.2547
ltibia 20.4563
lfoot 20.6592 -11.3327
ltoes 0.0871636
197
root -7.46942 18.0708 8.61811 182.665 -49.8448 172.889
lowerback 8.19118 -5.8782 -5.31215
upperback -0.23211 -8.26768 3.50051
thorax -3.5381 -4.02516 7.47626
lowerneck 6.12622 -14.7516 -15.9803
upperneck 31.6476 -34.9375 12.8548
head 15.5479 -17.962 2.23608
rclavicle -6.38099e-014 -4.29375e-014
rhumerus -42.2931 -16.998 -73.6386
rradius 30.0763
rwrist 7.75153
rhand -15.0792 6.68985
rfingers 7.12502
rthumb 11.0884 -22.9972
lclavicle -6.38099e-014 -4.29375e-014
lhumerus -21.4475 -6.20988 89.891
lradius 35.8053
lwrist -3.39945
lhand -18.0557 24.8862
lfingers 7.12502
lthumb 8.21658 54.7064
rfemur -18.6352 -5.17969 23.7431
rtibia 35.1509
rfoot -3.744 -5.68916
rtoes 9.84886
lfemur 16.7846 -2.07089 -22.4854
ltibia 19.7372
lfoot 18.4605 -11.6815
ltoes -1.913
198
root -7.38053 18.0591 8.7212 182.841 -50.3579 172.803
lowerback 8.28093 -5.88618 -5.36049
upperback -0.2799 -8.28556 3.53889
thorax -3.62298 -4.02762 7.56089
lowerneck 6.17645 -14.84 -16.0001
upperneck 31.6224 -35.0423 12.8613
head 15.5544 -17.9987 2.2229
rclavicle 8.29926e-014 -1.59028e-014
rhumerus -42.4762 -17.2561 -73.4502
rradius 30.3454
rwrist 7.72206
rhand -14.8717 6.42566
rfingers 7.12502
rthumb 11.2885 -23.2506
lclavicle 8.29926e-014 -1.59028e-014
lhumerus -21.0601 -6.61662 90.0876
lradius 36.2853
lwrist -3.69924
lhand -17.8665 25.1185
lfingers 7.12502
lthumb 8.39914 54.9315
rfemur -19.1794 -5.0454 23.641
rtibia 35.0652
rfoot -3.4603 -6.1667
rtoes 9.9634
lfemur 17.0164 -2.47518 -22.6662
ltibia 19.2628
lfoot 15.6401 -12.5938
ltoes -8.3762
199
root -7.28898 18.047 8.82541 182.992 -50.841 172.685
lowerback 8.50209 -5.8674 -5.39783
upperback -0.357126 -8.27235 3.55224
thorax -3.82254 -4.00764 7.63163
lowerneck 6.34386 -14.9004 -16.0811
upperneck 31.5333 -35.1497 12.9605
head 15.5469 -18.051 2.26349
rclavicle -2.37548e-014 -4.77083e-015
rhumerus -42.5728 -17.5185 -73.1998
rradius 30.3149
rwrist 7.79031
rhand -14.5485 5.83159
rfingers 7.12502
rthumb 11.6002 -23.8273
lclavicle -2.37548e-014 -4.77083e-015
lhumerus -20.6342 -7.02642 90.3595
lradius 36.6352
lwrist -3.81044
lhand -18.3992 25.1556
lfingers 7.12502
lthumb 7.88509 54.9885
rfemur -19.6458 -5.07512 23.5283
rtibia 34.9494
rfoot -3.14445 -6.42088
rtoes 9.58303
lfemur 17.1866 -2.77251 -22.8196
ltibia 18.868
lfoot 12.9743 -13.1475
ltoes -14.1092
200
root -7.19516 18.0324 8.92871 183.117 -51.2523 172.62
lowerback 8.6664 -5.87672 -5.51313
upperback -0.370298 -8.30304 3.59968
thorax -3.89988 -4.01669 7.77125
lowerneck 6.50001 -14.9217 -16.1124
upperneck 31.3296 -35.1383 13.1323
head 15.468 -18.0445 2.35811
rclavicle 7.33515e-014 -1.74931e-014
rhumerus -42.454 -17.5234 -73.1776
rradius 30.3126
rwrist 7.58317
rhand -14.4229 5.74983
rfingers 7.12502
rthumb 11.7213 -23.9022
lclavicle 7.33515e-014 -1.74931e-014
lhumerus -20.2479 -7.3532 90.4925
lradius 37.0114
lwrist -3.63654
lhand -18.377 25.3189
lfingers 7.12502
lthumb 7.90644 55.1511
rfemur -20.161 -4.96398 23.4397
rtibia 34.8416
rfoot -2.87552 -6.72408
rtoes 10.3042
lfemur 17.2662 -3.04627 -22.9158
ltibia 18.4488
lfoot 10.6727 -12.6646
ltoes -14.669
